<?xml version="1.0" standalone="no"?>
<!DOCTYPE svg PUBLIC "-//W3C//DTD SVG 1.0//EN" "http://www.w3.org/TR/2001/REC-SVG-20010904/DTD/svg10.dtd">
<svg xmlns="http://www.w3.org/2000/svg" xmlns:xlink="http://www.w3.org/1999/xlink" id="body_1" width="64" height="48">

<g transform="matrix(0.09375 0 0 0.09375 15.04344 -0)">
	<g>
	</g>
	<g>
	</g>
	<g>
		<g>
			<g>
				<g>
                    <path d="M173.694 41.66L173.694 41.599C 173.449 39.329 173.019 37.181 172.283 35.034C 172.037 34.298 171.792 33.562 171.485 32.886C 171.178 32.15 170.871 31.475002 170.503 30.800001C 170.196 30.187 169.89 29.573002 169.52101 29.021002C 169.214 28.469002 168.84601 27.916002 168.47801 27.426003C 167.98701 26.690002 167.37401 25.954002 166.76001 25.217003C 166.147 24.420002 165.47101 23.683002 164.73502 23.008003C 162.77202 21.106003 160.56302 19.511003 158.10901 18.223003C 158.048 18.162003 157.98601 18.162003 157.925 18.100004C 156.944 17.609005 155.90001 17.118004 154.85701 16.750004C 153.93701 16.382004 153.016 16.075005 152.035 15.830004C 151.789 15.707004 151.544 15.646004 151.237 15.585004C 150.194 15.339004 149.151 15.156004 148.108 15.033004C 148.108 15.033004 148.047 15.033004 147.985 15.033004C 147.801 14.972004 147.55501 14.972004 147.31 14.972004L147.31 14.972004L147.00299 14.972004C 146.144 14.850004 145.28499 14.788004 144.426 14.788004L144.426 14.788004L29.325996 14.788004C 24.416996 14.788004 19.815996 16.015003 15.766996 18.162004C 9.08 21.72 3.865 27.794 1.472 35.033C 0.552 37.917 0 40.924 0 44.114L0 44.114L0 180.443C 0.061 224.92499 61.354 222.77798 69.821 251.368C 73.502 263.823 73.563995 287.199 73.134 306.219C 73.073006 311.802 72.950005 317.017 72.889 321.496C 72.828 323.766 72.766 325.975 72.828 327.815C 72.767006 328.306 72.767006 328.798 72.767006 329.288C 72.767006 336.77298 72.645004 343.583 72.338005 349.719C 69.823006 402.913 57.858006 411.503 58.288006 452.18C 58.533005 474.882 63.135006 489.852 68.90201 499.117C 69.94501 500.834 71.05001 502.307 72.15401 503.657C 73.62701 505.436 75.09901 506.84702 76.63301 508.013C 77.79901 508.933 78.90301 509.608 80.00701 510.22202C 82.46 511.448 84.73 512 86.755 512C 86.81699 512 86.81699 512 86.877 511.939C 87.92 511.939 89.025 511.755 90.19 511.448C 91.356 511.203 92.521 510.712 93.749 509.976C 93.994 509.854 94.24 509.67 94.485 509.54703C 95.283 509.17902 96.019 508.627 96.817 508.01303C 98.289 506.90802 99.762 505.49704 101.234 503.71902L101.234 503.71902L101.295 503.71902C 101.295 503.65802 101.356995 503.65802 101.356995 503.65802C 108.534996 495.06702 114.854996 479.05502 115.09999 452.12003C 115.59099 411.50403 103.62699 402.91504 101.17299 349.65903C 100.86599 344.812 100.74399 339.53604 100.74399 333.83002C 100.68299 332.35703 100.68299 330.824 100.68299 329.29C 100.68299 328.799 100.68299 328.308 100.74399 327.81702C 100.68299 325.97702 100.62099 323.83002 100.55999 321.49802L100.55999 321.49802L100.62099 321.437C 100.55999 321.19202 100.55999 320.885 100.55999 320.639C 100.55999 320.393 100.55999 320.087 100.49899 319.78C 100.49899 318.553 100.437996 317.264 100.37599 315.915C 100.13099 303.95102 99.76299 288.49002 100.43699 274.86902C 100.497986 273.58102 100.62099 272.23102 100.68199 271.00403C 100.86599 268.30402 101.11099 265.72803 101.41899 263.27304C 101.90999 258.73303 102.64599 254.68304 103.62799 251.37004C 110.00899 229.77304 146.51498 225.72404 164 205.90704C 165.841 203.82004 167.497 201.55104 168.847 199.03505C 169.583 197.74706 170.197 196.39705 170.749 195.04805C 171.48499 193.20705 172.099 191.24405 172.467 189.09705C 172.651 188.72905 172.713 188.36005 172.713 187.93105C 172.897 186.94905 173.02 185.90704 173.142 184.86305C 173.326 183.94205 173.51 182.96106 173.633 181.97905C 173.694 180.99706 173.756 180.01605 173.756 179.03305L173.756 179.03305L173.756 44.052C 173.755 43.255 173.694 42.457 173.694 41.66zM32.824 172.099C 28.652 172.099 25.339 168.049 25.523 163.26399L25.523 163.26399L27.609001 86.202995C 27.670002 83.871994 30.002 81.96999 32.824 81.96999C 35.646 81.96999 37.978 83.871994 38.039 86.202995L38.039 86.202995L40.186 163.26399C 40.31 168.049 36.997 172.099 32.824 172.099zM68.839 200.321C 64.667 200.321 61.414997 194.43 61.538 187.437L61.538 187.437L63.684998 74.545C 63.746 71.109 66.077995 68.348 68.839 68.348C 71.660995 68.348 73.993 71.109 74.054 74.545L74.054 74.545L76.201004 187.437C 76.325 194.431 73.073 200.321 68.839 200.321zM104.915 200.321C 100.743004 200.321 97.43 194.43 97.553 187.437L97.553 187.437L99.700005 74.545C 99.761 71.109 102.093 68.348 104.91501 68.348C 107.73801 68.348 110.06901 71.109 110.130005 74.545L110.130005 74.545L112.216 187.437C 112.401 194.431 109.088 200.321 104.915 200.321zM140.93 172.099C 136.758 172.099 133.44499 168.049 133.629 163.26399L133.629 163.26399L135.715 86.202995C 135.776 83.871994 138.108 81.96999 140.93 81.96999C 143.752 81.96999 146.084 83.871994 146.14499 86.202995L146.14499 86.202995L148.29199 163.26399C 148.416 168.049 145.103 172.099 140.93 172.099z" stroke="none" fill="#FFC107" fill-rule="nonzero" />
					<g>
                        <path d="M117.677 321.496L117.677 482.98C 117.677 483.717 117.616005 484.452 117.554 485.12802C 117.063 489.97403 114.977 494.27002 111.787 497.583C 111.358 498.012 110.990005 498.441 110.499 498.81C 110.069 499.23898 109.64 499.607 109.21 499.914C 109.088 499.975 109.026 500.037 108.903 500.098C 108.351 500.52798 107.799 500.896 107.185 501.263C 106.939995 501.447 106.632996 501.57 106.388 501.754C 106.020004 502 105.651 502.122 105.222 502.306C 104.976 502.429 104.793 502.49 104.547 502.613C 104.057 502.797 103.565994 503.042 103.013 503.165C 102.952 503.226 102.829 503.226 102.706 503.288C 102.583 503.349 102.461 503.349 102.338005 503.41098C 102.031006 503.472 101.602005 503.59497 101.295006 503.718L101.295006 503.718L101.172005 503.718C 99.577 504.14697 97.982 504.331 96.325005 504.331L96.325005 504.331L77.49 504.331C 76.201 504.331 74.974 504.208 73.746994 503.96298C 73.19499 503.90198 72.643 503.779 72.15199 503.65698C 64.11499 501.56998 57.91799 494.883 56.444992 486.662C 56.260994 485.434 56.137993 484.20798 56.137993 482.97998L56.137993 482.97998L56.137993 321.496L117.677 321.496z" stroke="none" fill="#B5651D" fill-rule="nonzero" />
                        <path d="M117.677 327.815L117.677 349.719L116.634 349.719L101.173 349.657L86.877 349.657L72.336 349.719L56.139 349.719L56.139 327.815L117.677 327.815" stroke="none" fill="#000000" fill-rule="nonzero" fill-opacity="0" />
                        <path d="M99.916 474.409C 99.91601 478.00714 98.643875 481.07837 96.0996 483.6226C 93.55534 486.16687 90.48414 487.43903 86.886 487.439C 83.28787 487.43903 80.21667 486.16687 77.6724 483.6226C 75.128136 481.07837 73.856 478.00714 73.856 474.409C 73.856 470.81085 75.128136 467.7397 77.6724 465.1954C 80.21667 462.65112 83.28787 461.379 86.886 461.379C 90.48414 461.379 93.55534 462.65112 96.0996 465.1954C 98.643875 467.7397 99.91601 470.81085 99.916 474.409C 99.91601 474.56067 99.91336 474.71222 99.908066 474.86374" stroke="none" fill="#FFFFFF" fill-rule="nonzero" />
					</g>
                    <path d="M173.755 44.052L173.755 49.39L0 49.39L0 44.114C 0 40.924 0.552 37.917 1.472 35.033997C 3.8649998 27.793997 9.08 21.719997 15.768 18.161997C 19.817 16.013996 24.418999 14.787996 29.327 14.787996L29.327 14.787996L144.427 14.787996C 145.286 14.787996 146.145 14.848996 147.004 14.971996L147.004 14.971996L147.311 14.971996C 147.556 14.971996 147.802 14.971996 147.98601 15.032996C 148.04701 15.032996 148.10901 15.032996 148.10901 15.032996C 149.15201 15.155996 150.195 15.339996 151.238 15.584996C 151.54501 15.645996 151.79001 15.706996 152.03601 15.829996C 153.018 16.074997 153.938 16.381996 154.85802 16.749996C 155.90102 17.117996 156.94402 17.608995 157.92601 18.099997C 157.98701 18.160997 158.04901 18.160997 158.11002 18.222996C 160.56401 19.510996 162.77301 21.105995 164.73602 23.007996C 165.47202 23.682995 166.14702 24.418995 166.76102 25.216995C 167.37502 25.953995 167.98802 26.689995 168.47902 27.425995C 168.84702 27.916994 169.21501 28.468994 169.52202 29.020994C 169.89001 29.572994 170.19702 30.186995 170.50401 30.799994C 170.87201 31.474993 171.17902 32.149994 171.48601 32.885994C 171.79301 33.560993 172.03801 34.296993 172.28401 35.033993C 173.02 37.180992 173.45001 39.328995 173.695 41.59899L173.695 41.59899L173.695 41.659992C 173.694 42.457 173.755 43.255 173.755 44.052z" stroke="none" fill="#FFC107" fill-rule="nonzero" />
				</g>
                <path d="M173.755 44.052L173.755 179.031C 173.755 180.014 173.694 180.99501 173.632 181.977C 173.51001 182.959 173.38701 183.879 173.20201 184.79901C 173.08002 185.904 172.95702 186.94601 172.71101 187.92801C 172.71101 188.35701 172.65001 188.72601 172.46501 189.09401C 172.09702 191.24101 171.48302 193.20401 170.74701 195.04501C 170.195 196.39502 169.58101 197.74402 168.84502 199.03201C 167.49501 201.54802 165.90001 203.81801 163.99802 205.904C 146.51202 225.72101 110.00601 229.77 103.626015 251.367C 102.64401 254.68001 101.90801 258.73 101.417015 263.27002C 101.110016 265.72403 100.86501 268.30103 100.680016 271.001C 100.61902 272.228 100.49602 273.578 100.43501 274.866C 99.76001 288.487 100.12801 303.948 100.374016 315.912C 100.43501 317.262 100.49702 318.551 100.49702 319.77698C 100.558014 320.08398 100.558014 320.38998 100.558014 320.636L100.558014 320.636L100.558014 321.434L117.67601 321.434L117.67601 482.98C 117.67601 483.717 117.61501 484.452 117.55301 485.12802C 117.06201 489.97403 114.976006 494.27002 111.78601 497.583C 111.35701 498.012 110.98901 498.441 110.49801 498.81C 110.00701 499.3 109.45501 499.668 108.90301 500.098C 108.351006 500.52798 107.79901 500.896 107.185005 501.263C 106.57201 501.631 105.897 502 105.22201 502.306C 104.976006 502.429 104.79301 502.49 104.547005 502.613C 104.05701 502.797 103.566 503.042 103.01301 503.165C 102.95201 503.226 102.82901 503.226 102.70601 503.288C 102.58301 503.349 102.461006 503.349 102.33801 503.41098C 102.03101 503.472 101.66301 503.59497 101.35701 503.65698C 101.35701 503.65698 101.29501 503.65698 101.29501 503.718L101.29501 503.718L101.17201 503.718C 98.96301 506.29398 96.69301 508.197 94.485016 509.546C 94.23901 509.66898 93.99402 509.853 93.749016 509.97498C 92.52202 510.64996 91.35602 511.14096 90.19002 511.44696C 89.02402 511.75397 87.92002 511.93796 86.877014 511.93796L86.877014 511.93796L86.877014 14.787L144.42702 14.787C 145.28601 14.787 146.14502 14.848 146.94302 14.908999C 147.06502 14.908999 147.18802 14.908999 147.31102 14.969999C 147.55602 14.969999 147.80202 14.969999 147.98602 15.030999C 148.04703 15.030999 148.10902 15.030999 148.10902 15.030999C 149.15202 15.153999 150.19502 15.337999 151.23802 15.582999C 151.54503 15.643999 151.79002 15.704999 152.03603 15.827999C 153.01802 16.073 153.93802 16.38 154.85803 16.748C 155.90103 17.116 156.94403 17.606998 157.92603 18.098C 157.98703 18.159 158.04903 18.159 158.11003 18.220999C 160.56403 19.508999 162.77303 21.103998 164.73604 23.005999C 165.47203 23.680998 166.14703 24.416998 166.76103 25.214998C 167.37503 25.951998 167.98804 26.687998 168.47903 27.423998C 168.84703 27.914997 169.21503 28.466997 169.52203 29.018997C 169.89003 29.570997 170.19704 30.184998 170.50403 30.797997C 170.87202 31.472996 171.17903 32.147995 171.48602 32.883995C 171.79303 33.558994 172.03802 34.294994 172.28403 35.031994C 173.02002 37.178993 173.45003 39.326996 173.69502 41.596992L173.69502 41.596992L173.69502 41.657993C 173.694 42.457 173.755 43.255 173.755 44.052z" stroke="none" fill="#040000" fill-rule="nonzero" fill-opacity="0.078431375" />
			</g>
			<g>
				<g>
                    <path d="M361.744 79.392C 361.744 79.392 351.25198 178.786 350.823 180.687C 346.896 221.181 298.059 220.138 289.837 248.05399C 289.653 248.66798 289.469 249.28198 289.346 250.01799C 289.16202 250.63199 289.039 251.18298 288.91702 251.859C 288.73303 252.534 288.67102 253.209 288.549 253.94499C 288.36502 254.68098 288.242 255.41699 288.11902 256.215C 286.03302 269.71298 286.156 288.979 286.40103 304.991C 286.40103 306.525 286.46204 307.997 286.52402 309.47C 286.58502 312.231 286.64603 314.931 286.708 317.385C 286.708 317.93802 286.769 318.49002 286.831 319.04202L286.831 319.04202L286.77 319.10303C 286.831 321.43402 286.89297 323.58203 286.89297 325.48404L286.89297 325.48404L286.89297 326.95703C 286.89297 334.56503 287.01596 341.43604 287.32297 347.63303C 289.83798 401.50104 301.98596 410.21402 301.49597 451.38303C 301.24997 478.68503 294.80798 494.88303 287.50696 503.59503C 287.44595 503.59503 287.44595 503.65604 287.44595 503.65604C 285.97296 505.43503 284.43994 506.84604 282.96695 507.95004C 282.16895 508.56305 281.37195 509.11505 280.57394 509.54504C 280.57394 509.54504 280.57394 509.54504 280.51294 509.60605C 279.65393 510.15805 278.73395 510.58704 277.87494 510.95605C 277.19995 511.20206 276.52493 511.44705 275.84995 511.56906C 274.86795 511.81506 273.88693 511.93707 272.90494 511.93707C 272.90494 511.99808 272.84393 511.99808 272.72095 511.99808C 269.77594 511.99808 266.15594 510.7711 262.53595 507.94907C 260.94095 506.78406 259.46796 505.37207 257.99594 503.53207C 253.76294 498.56207 249.83594 491.01608 247.19794 480.27908C 245.29594 472.4261 244.12994 462.97708 243.94594 451.44308C 243.51595 410.21307 255.66493 401.5001 258.17993 347.69308L258.17993 347.69308L258.17993 347.63208C 258.48694 341.37408 258.60992 334.56308 258.60992 326.9561C 258.60992 326.4651 258.60992 325.9741 258.67093 325.4831C 258.60992 323.5811 258.67093 321.3721 258.73193 319.10208C 259.09995 299.16208 260.44992 264.4361 255.60294 248.05307C 247.07494 219.09407 194.43294 221.30307 194.37193 176.20706L194.37193 176.20706L184.06493 79.39006C 184.062 35.708 229.219 0 272.903 0C 286.217 0 299.65402 3.313 311.924 9.203C 331.618 18.529 348.246 34.481 356.344 53.622997C 359.842 61.722 361.744 70.373 361.744 79.392z" stroke="none" fill="#FFC107" fill-rule="nonzero" />
					<g>
                        <path d="M206.194 85.053C 204.547 85.053 202.876 84.707 201.282 83.976C 195.36 81.259995 192.761 74.256 195.478 68.335C 210.929 34.66 235.756 14.944 265.389 12.820999C 271.9 12.370999 277.534 17.245998 277.999 23.744999C 278.464 30.244 273.573 35.89 267.07498 36.355C 239.21599 38.350998 223.69498 63.412 216.92398 78.173004C 214.939 82.502 210.662 85.053 206.194 85.053z" stroke="none" fill="#FCF9F8" fill-rule="nonzero" />
					</g>
                    <path d="M304.071 319.103L304.071 482.612C 304.071 488.563 301.617 493.962 297.69 497.889C 297.015 498.564 296.279 499.177 295.481 499.729C 294.806 500.282 294.193 500.772 293.456 501.14C 293.21 501.324 292.904 501.44702 292.658 501.57C 291.922 502 291.124 502.368 290.26498 502.73502C 289.34497 503.04202 288.425 503.34903 287.504 503.595C 287.443 503.595 287.443 503.656 287.443 503.656C 287.382 503.656 287.382 503.656 287.382 503.656C 285.72498 504.02402 284.12997 504.207 282.412 504.207L282.412 504.207L263.392 504.207C 261.551 504.207 259.711 503.962 257.993 503.533C 248.667 501.13898 241.73401 492.612 241.73401 482.611L241.73401 482.611L241.73401 319.103L304.071 319.103z" stroke="none" fill="#B5651D" fill-rule="nonzero" />
                    <path d="M241.735 325.484L304.07098 325.484L304.07098 347.633L241.735 347.633z" stroke="none" fill="#000000" fill-rule="nonzero" fill-opacity="0" />
                    <path d="M286.09702 473.927C 286.09705 477.5707 284.80878 480.6808 282.23227 483.25726C 279.6558 485.83377 276.54572 487.122 272.902 487.122C 269.25833 487.122 266.14825 485.83377 263.57175 483.25726C 260.99524 480.6808 259.707 477.5707 259.707 473.927C 259.707 470.28333 260.99524 467.17322 263.57175 464.59674C 266.14825 462.02026 269.25833 460.732 272.902 460.732C 276.54572 460.732 279.6558 462.02026 282.23227 464.59674C 284.80878 467.17322 286.09705 470.28333 286.09702 473.927C 286.09705 474.08057 286.09436 474.23407 286.08896 474.3875" stroke="none" fill="#FFFFFF" fill-rule="nonzero" />
				</g>
                <path d="M361.744 79.392C 361.744 79.392 351.25198 178.786 350.823 180.687C 346.896 221.181 298.059 220.138 289.837 248.05399C 289.653 248.66798 289.469 249.28198 289.346 250.01799C 289.16202 250.63199 289.039 251.18298 288.91702 251.859C 288.73303 252.534 288.67102 253.209 288.549 253.94499C 288.36502 254.68098 288.242 255.41699 288.11902 256.215C 286.03302 269.71298 286.156 288.979 286.40103 304.991C 286.40103 306.525 286.46204 307.997 286.52402 309.47C 286.58502 312.231 286.64603 314.931 286.708 317.385C 286.708 317.93802 286.769 318.49002 286.831 319.04202L286.831 319.04202L286.77 319.10303L304.072 319.10303L304.072 482.61203C 304.072 488.56302 301.61798 493.96204 297.69098 497.88904C 297.016 498.56403 296.27997 499.17703 295.48196 499.72903C 294.80698 500.28204 294.19397 500.77203 293.45697 501.14005C 293.21097 501.32404 292.90497 501.44705 292.65897 501.57004C 291.92297 502.00003 291.12497 502.36804 290.26596 502.73505C 289.34595 503.04205 288.42596 503.34906 287.50497 503.59503C 287.44397 503.59503 287.44397 503.65604 287.44397 503.65604C 285.97098 505.43503 284.43796 506.84604 282.96497 507.95004C 282.16696 508.56305 281.36996 509.11505 280.57196 509.54504C 280.57196 509.54504 280.57196 509.54504 280.51096 509.60605C 279.65195 510.15805 278.73196 510.58704 277.87296 510.95605C 277.19797 511.20206 276.52295 511.44705 275.84796 511.56906C 274.86597 511.81506 273.88495 511.93707 272.90295 511.93707L272.90295 511.93707L272.90295 0C 286.21695 0 299.65396 3.313 311.92395 9.203C 331.61795 18.529 348.24594 34.481 356.34393 53.622997C 359.842 61.722 361.744 70.373 361.744 79.392z" stroke="none" fill="#040000" fill-rule="nonzero" fill-opacity="0.06666667" />
			</g>
		</g>
	</g>
</g>
</svg>